<svg width="198" height="24" viewBox="0 0 198 24" fill="none" xmlns="http://www.w3.org/2000/svg">
<path d="M186.552 0.906006C189.464 0.906006 191.614 1.06041 193.004 1.36922C194.394 1.67803 195.474 2.25153 196.246 3.08973C197.129 4.08233 197.669 5.63741 197.868 7.75496C197.956 8.65933 198 10.2144 198 12.4202C198 15.1774 197.835 17.2067 197.504 18.5081C197.195 19.7875 196.621 20.8022 195.783 21.5521C194.658 22.5447 192.872 23.1182 190.423 23.2726C189.21 23.3829 186.045 23.4381 180.927 23.4381C178.214 23.4381 176.185 23.3498 174.839 23.1734C173.516 22.9969 172.413 22.6771 171.531 22.2139C170.406 21.5962 169.623 20.6257 169.181 19.3022C168.762 17.9567 168.553 15.8171 168.553 12.8834C168.553 9.55267 168.652 7.35792 168.851 6.29914C169.38 3.36545 171.321 1.67803 174.674 1.23687C176.35 1.01629 180.31 0.906006 186.552 0.906006ZM183.409 5.07493C182.24 5.07493 181.368 5.07493 180.795 5.07493C180.221 5.07493 179.538 5.10802 178.744 5.1742C177.949 5.21831 177.387 5.2514 177.056 5.27345C176.747 5.29551 176.35 5.39477 175.865 5.57123C175.402 5.7477 175.104 5.89107 174.972 6.00136C174.839 6.08959 174.652 6.31017 174.409 6.6631C174.167 7.01602 174.034 7.3138 174.012 7.55644C173.99 7.77702 173.935 8.18509 173.847 8.78065C173.781 9.37621 173.747 9.88354 173.747 10.3026C173.747 10.6997 173.747 11.3394 173.747 12.2217C173.747 13.2143 173.747 13.9753 173.747 14.5047C173.747 15.034 173.803 15.6075 173.913 16.2252C174.045 16.8207 174.155 17.2398 174.244 17.4825C174.354 17.7251 174.586 18.0008 174.939 18.3096C175.314 18.5964 175.655 18.7839 175.964 18.8721C176.295 18.9383 176.835 19.0265 177.585 19.1368C178.335 19.225 179.03 19.2691 179.67 19.2691C180.332 19.2691 181.291 19.2691 182.548 19.2691C185.703 19.2691 187.798 19.225 188.835 19.1368C189.894 19.0486 190.721 18.839 191.316 18.5081C191.934 18.1773 192.353 17.5707 192.574 16.6884C192.794 15.8061 192.905 14.262 192.905 12.0562C192.905 11.196 192.905 10.5673 192.905 10.1703C192.905 9.75119 192.872 9.25489 192.805 8.68139C192.739 8.10789 192.684 7.71084 192.64 7.49027C192.618 7.26969 192.486 6.98294 192.243 6.63001C192.022 6.27709 191.846 6.05651 191.714 5.96828C191.581 5.85799 191.272 5.71461 190.787 5.53815C190.324 5.36168 189.938 5.27345 189.629 5.27345C189.32 5.2514 188.769 5.21831 187.975 5.1742C187.203 5.10802 186.53 5.07493 185.956 5.07493C185.405 5.07493 184.556 5.07493 183.409 5.07493Z" fill="white"/>
<path d="M150.777 10.8651L157.99 2.72578C158.519 2.06404 159.016 1.62289 159.479 1.40231C159.942 1.18173 160.593 1.0935 161.431 1.13762H163.548C164.32 1.13762 164.706 1.45745 164.706 2.09713C164.706 2.27359 164.574 2.52726 164.309 2.85813L153.292 14.9017V21.0558C153.336 22.4896 152.663 23.2065 151.273 23.2065H150.214C148.825 23.2065 148.152 22.4896 148.196 21.0558V14.9017L137.079 2.85813C136.814 2.57138 136.682 2.30668 136.682 2.06404C136.682 1.44643 137.068 1.13762 137.84 1.13762H140.057C140.895 1.0935 141.546 1.18173 142.009 1.40231C142.472 1.62289 142.968 2.06404 143.498 2.72578L150.777 10.8651Z" fill="white"/>
<path d="M112.028 0.906006C114.94 0.906006 117.09 1.06041 118.48 1.36922C119.87 1.67803 120.95 2.25153 121.722 3.08973C122.605 4.08233 123.145 5.63741 123.344 7.75496C123.432 8.65933 123.476 10.2144 123.476 12.4202C123.476 15.1774 123.311 17.2067 122.98 18.5081C122.671 19.7875 122.097 20.8022 121.259 21.5521C120.134 22.5447 118.348 23.1182 115.899 23.2726C114.686 23.3829 111.521 23.4381 106.403 23.4381C103.69 23.4381 101.661 23.3498 100.315 23.1734C98.9918 22.9969 97.8889 22.6771 97.0066 22.2139C95.8817 21.5962 95.0986 20.6257 94.6575 19.3022C94.2384 17.9567 94.0288 15.8171 94.0288 12.8834C94.0288 9.55267 94.1281 7.35792 94.3266 6.29914C94.856 3.36545 96.7971 1.67803 100.15 1.23687C101.826 1.01629 105.786 0.906006 112.028 0.906006ZM108.885 5.07493C107.716 5.07493 106.844 5.07493 106.271 5.07493C105.697 5.07493 105.014 5.10802 104.22 5.1742C103.425 5.21831 102.863 5.2514 102.532 5.27345C102.223 5.29551 101.826 5.39477 101.341 5.57123C100.878 5.7477 100.58 5.89107 100.448 6.00136C100.315 6.08959 100.128 6.31017 99.8852 6.6631C99.6425 7.01602 99.5102 7.3138 99.4881 7.55644C99.4661 7.77702 99.4109 8.18509 99.3227 8.78065C99.2565 9.37621 99.2234 9.88354 99.2234 10.3026C99.2234 10.6997 99.2234 11.3394 99.2234 12.2217C99.2234 13.2143 99.2234 13.9753 99.2234 14.5047C99.2234 15.034 99.2786 15.6075 99.3889 16.2252C99.5212 16.8207 99.6315 17.2398 99.7197 17.4825C99.83 17.7251 100.062 18.0008 100.415 18.3096C100.79 18.5964 101.131 18.7839 101.44 18.8721C101.771 18.9383 102.312 19.0265 103.061 19.1368C103.811 19.225 104.506 19.2691 105.146 19.2691C105.808 19.2691 106.767 19.2691 108.024 19.2691C111.179 19.2691 113.274 19.225 114.311 19.1368C115.37 19.0486 116.197 18.839 116.792 18.5081C117.41 18.1773 117.829 17.5707 118.05 16.6884C118.27 15.8061 118.381 14.262 118.381 12.0562C118.381 11.196 118.381 10.5673 118.381 10.1703C118.381 9.75119 118.348 9.25489 118.281 8.68139C118.215 8.10789 118.16 7.71084 118.116 7.49027C118.094 7.26969 117.962 6.98294 117.719 6.63001C117.498 6.27709 117.322 6.05651 117.19 5.96828C117.057 5.85799 116.748 5.71461 116.263 5.53815C115.8 5.36168 115.414 5.27345 115.105 5.27345C114.796 5.2514 114.245 5.21831 113.451 5.1742C112.679 5.10802 112.006 5.07493 111.432 5.07493C110.881 5.07493 110.032 5.07493 108.885 5.07493Z" fill="white"/>
<path d="M83.6073 14.7364H75.5672C74.9275 14.7364 74.4202 14.593 74.0452 14.3062C73.6923 13.9974 73.5158 13.5783 73.5158 13.049C73.5158 12.5416 73.6923 12.1446 74.0452 11.8578C74.4202 11.549 74.9275 11.3946 75.5672 11.3946H86.4197C87.1255 11.3505 87.6659 11.5049 88.0409 11.8578C88.4159 12.1887 88.5923 12.685 88.5703 13.3467V13.7438C88.5703 15.8172 88.5041 17.3061 88.3718 18.2105C88.2394 19.1149 87.9637 19.942 87.5446 20.692C86.927 21.839 85.78 22.622 84.1036 23.0411C83.133 23.2838 79.9016 23.4051 74.4092 23.4051C68.8947 23.4051 65.5199 23.1625 64.2846 22.6772C63.2259 22.2801 62.3987 21.7397 61.8031 21.0559C61.2296 20.3501 60.8326 19.4126 60.612 18.2436C60.3694 17.0966 60.248 15.1444 60.248 12.3872C60.248 9.47559 60.3694 7.40215 60.612 6.16691C60.8546 4.93167 61.3289 3.92804 62.0347 3.15602C62.9612 2.16342 64.2846 1.55683 66.0051 1.33625C67.6374 1.07156 71.288 0.939209 76.9569 0.939209C80.1773 0.939209 82.4823 1.08258 83.872 1.36934C85.2837 1.65609 86.3425 2.20753 87.0483 3.02367C87.8865 3.97216 88.3056 5.08608 88.3056 6.36543C88.3056 6.93894 88.1291 7.39112 87.7762 7.72199C87.4453 8.05286 86.9821 8.21829 86.3866 8.21829H85.394C84.2911 8.24035 83.5963 7.74405 83.3095 6.72939C83.133 6.22206 82.8022 5.83604 82.3169 5.57135C81.8316 5.32871 81.214 5.17431 80.464 5.10814C79.7361 5.01991 78.3906 4.97579 76.4275 4.97579C72.3909 4.97579 69.7991 5.04196 68.6521 5.17431C67.5051 5.30666 66.722 5.62649 66.3029 6.13382C65.6853 6.81762 65.3765 8.70356 65.3765 11.7917C65.3765 13.9754 65.4537 15.5305 65.6081 16.4569C65.7846 17.3613 66.1044 18.012 66.5676 18.409C67.0529 18.8502 67.7918 19.1369 68.7844 19.2693C69.7991 19.3795 71.8063 19.4347 74.8062 19.4347C77.8061 19.4347 79.7361 19.3795 80.5964 19.2693C81.4566 19.159 82.1184 18.8832 82.5816 18.4421C83.2874 17.7583 83.6404 16.6664 83.6404 15.1665C83.6404 15.0121 83.6293 14.8687 83.6073 14.7364Z" fill="white"/>
<path d="M43.3033 0.906006C46.2149 0.906006 48.3655 1.06041 49.7552 1.36922C51.1448 1.67803 52.2256 2.25153 52.9977 3.08973C53.88 4.08233 54.4204 5.63741 54.6189 7.75496C54.7072 8.65933 54.7513 10.2144 54.7513 12.4202C54.7513 15.1774 54.5858 17.2067 54.255 18.5081C53.9462 19.7875 53.3727 20.8022 52.5345 21.5521C51.4095 22.5447 49.6228 23.1182 47.1744 23.2726C45.9612 23.3829 42.7959 23.4381 37.6785 23.4381C34.9654 23.4381 32.9361 23.3498 31.5906 23.1734C30.2671 22.9969 29.1642 22.6771 28.2819 22.2139C27.1569 21.5962 26.3739 20.6257 25.9327 19.3022C25.5136 17.9567 25.3041 15.8171 25.3041 12.8834C25.3041 9.55267 25.4033 7.35792 25.6019 6.29914C26.1312 3.36545 28.0723 1.67803 31.4251 1.23687C33.1015 1.01629 37.0609 0.906006 43.3033 0.906006ZM40.16 5.07493C38.991 5.07493 38.1197 5.07493 37.5462 5.07493C36.9727 5.07493 36.2889 5.10802 35.4948 5.1742C34.7007 5.21831 34.1382 5.2514 33.8074 5.27345C33.4986 5.29551 33.1015 5.39477 32.6162 5.57123C32.153 5.7477 31.8552 5.89107 31.7229 6.00136C31.5906 6.08959 31.4031 6.31017 31.1604 6.6631C30.9178 7.01602 30.7854 7.3138 30.7634 7.55644C30.7413 7.77702 30.6862 8.18509 30.598 8.78065C30.5318 9.37621 30.4987 9.88354 30.4987 10.3026C30.4987 10.6997 30.4987 11.3394 30.4987 12.2217C30.4987 13.2143 30.4987 13.9753 30.4987 14.5047C30.4987 15.034 30.5538 15.6075 30.6641 16.2252C30.7965 16.8207 30.9068 17.2398 30.995 17.4825C31.1053 17.7251 31.3369 18.0008 31.6898 18.3096C32.0648 18.5964 32.4067 18.7839 32.7155 18.8721C33.0464 18.9383 33.5868 19.0265 34.3368 19.1368C35.0867 19.225 35.7815 19.2691 36.4212 19.2691C37.083 19.2691 38.0425 19.2691 39.2998 19.2691C42.454 19.2691 44.5495 19.225 45.5862 19.1368C46.645 19.0486 47.4722 18.839 48.0677 18.5081C48.6854 18.1773 49.1045 17.5707 49.325 16.6884C49.5456 15.8061 49.6559 14.262 49.6559 12.0562C49.6559 11.196 49.6559 10.5673 49.6559 10.1703C49.6559 9.75119 49.6228 9.25489 49.5567 8.68139C49.4905 8.10789 49.4353 7.71084 49.3912 7.49027C49.3692 7.26969 49.2368 6.98294 48.9942 6.63001C48.7736 6.27709 48.5971 6.05651 48.4648 5.96828C48.3324 5.85799 48.0236 5.71461 47.5384 5.53815C47.0751 5.36168 46.6891 5.27345 46.3803 5.27345C46.0715 5.2514 45.5201 5.21831 44.726 5.1742C43.954 5.10802 43.2812 5.07493 42.7077 5.07493C42.1562 5.07493 41.307 5.07493 40.16 5.07493Z" fill="white"/>
<path d="M5.09739 19.0706H19.06C20.4496 19.0044 21.1665 19.622 21.2106 20.9234V21.3536C21.1665 22.655 20.4496 23.2726 19.06 23.2064H2.15267C1.40271 23.2285 0.851262 23.063 0.498337 22.7101C0.145412 22.3572 -0.0200218 21.8058 0.0020361 21.0558V3.28821C-0.0420795 1.85445 0.630684 1.13757 2.02033 1.13757H3.0791C4.46874 1.13757 5.14151 1.85445 5.09739 3.28821V19.0706Z" fill="white"/>
</svg>
